<?xml version="1.0" encoding="utf-8"?>
<!-- Generator: Adobe Illustrator 17.0.0, SVG Export Plug-In . SVG Version: 6.00 Build 0)  -->
<!DOCTYPE svg PUBLIC "-//W3C//DTD SVG 1.1//EN" "http://www.w3.org/Graphics/SVG/1.1/DTD/svg11.dtd">
<svg version="1.1" id="Layer_1" xmlns="http://www.w3.org/2000/svg" xmlns:xlink="http://www.w3.org/1999/xlink" x="0px" y="0px"
	 width="16px" height="16px" viewBox="0 0 16 16" enable-background="new 0 0 16 16" xml:space="preserve">
<rect fill="#0099CC" width="16" height="16"/>
<g>
	<path fill="#FFFFFF" d="M1.055,5.961h1.193L2.39,7.312h1.303L3.551,5.961h1.198l0.406,3.86H3.957L3.793,8.26H2.49l0.164,1.561
		H1.461L1.055,5.961z"/>
	<path fill="#FFFFFF" d="M11.784,5.961h1.983c0.432,0,0.744,0.103,0.938,0.308c0.193,0.205,0.27,0.498,0.23,0.877
		c-0.041,0.39-0.19,0.694-0.448,0.914C14.23,8.279,13.86,8.389,13.38,8.389h-0.653l-0.151,1.432h-1.198L11.784,5.961z M12.809,7.607
		h0.292c0.23,0,0.396-0.04,0.497-0.12c0.101-0.08,0.159-0.182,0.172-0.307c0.013-0.121-0.017-0.224-0.089-0.308
		c-0.072-0.084-0.219-0.126-0.442-0.126h-0.34L12.809,7.607z"/>
	<g>
		<polygon fill="#E45126" points="5.836,10.705 5.294,4.619 11.256,4.619 10.713,10.704 8.271,11.381 		"/>
		<polygon fill="#F1682B" points="8.275,10.864 10.248,10.317 10.712,5.117 8.275,5.117 		"/>
		<polygon fill="#EBEBEB" points="8.275,7.374 7.287,7.374 7.219,6.61 8.275,6.61 8.275,5.863 8.272,5.863 6.403,5.863 6.421,6.063 
			6.605,8.12 8.275,8.12 		"/>
		<polygon fill="#EBEBEB" points="8.275,9.312 8.272,9.313 7.44,9.089 7.387,8.493 6.983,8.493 6.638,8.493 6.742,9.665 
			8.271,10.09 8.275,10.089 		"/>
		<polygon fill="#FFFFFF" points="8.272,7.374 8.272,8.12 9.191,8.12 9.105,9.088 8.272,9.313 8.272,10.09 9.802,9.665 9.814,9.539 
			9.989,7.574 10.007,7.374 9.806,7.374 		"/>
		<polygon fill="#FFFFFF" points="8.272,5.863 8.272,6.327 8.272,6.608 8.272,6.61 10.073,6.61 10.073,6.61 10.075,6.61 
			10.09,6.442 10.124,6.063 10.142,5.863 		"/>
	</g>
</g>
</svg>
