<svg width="24" height="24" viewBox="0 0 24 24" fill="none" xmlns="http://www.w3.org/2000/svg" preserveAspectRatio="xMinYMid meet"><defs><style>.cls-1,.cls-2{fill:#1d1d1d;stroke-width:0}.cls-2{fill:#fff}</style></defs><path class="cls-1" d="M2.4 2.4h19.2v19.2H2.4z"/><path class="cls-2" d="M19.3 9.1c-.4-.4-1-.5-1.7-.5H15V10h-3.1l-.3 1.1c.2 0 .5-.2.7-.2h.6c.7 0 1.3.2 1.7.6s.6.9.6 1.6-.1.9-.3 1.3c-.2.4-.5.7-.9 1-.1 0-.3 0-.5.2h2.6v-2.5h1.3c.9 0 1.5-.2 1.9-.6s.6-.9.6-1.6-.2-1.2-.6-1.6zm-1.8 2.1c-.2.1-.5.2-.9.2H16V9.9h.7c.4 0 .7 0 .8.2.1.2.2.3.2.5s0 .4-.3.5z"/><path class="cls-2" d="M12.2 12c-.4 0-.7.2-.9.5l-1.9-.3.8-3.7H8.5v2.9H6.3V8.5H4.2v6.9h2.1v-2.5h2.2v2.5h2.6c-.3-.1-.6-.2-.8-.4l-.6-.6c-.2-.2-.3-.5-.3-.8l1.9-.3c.2.3.5.5.8.5s1-.4 1-1c0-.5-.4-.9-1-.9z"/></svg>
